<svg xmlns="http://www.w3.org/2000/svg" viewBox="0 0 600 400" width="100%" height="100%">
  <defs>
    <linearGradient id="logoGradient" x1="40" y1="0" x2="560" y2="0" gradientUnits="userSpaceOnUse">
      <stop offset="0%" stop-color="#194b6d" />
      <stop offset="50%" stop-color="#499593" />
      <stop offset="100%" stop-color="#7cc7a6" />
    </linearGradient>

    <mask id="cutout">
      <rect width="100%" height="100%" fill="white" />
      <path d="M 160 200 C 250 200, 280 230, 320 270 C 370 320, 430 380, 510 330 C 580 280, 520 200, 460 200"
            stroke="black" stroke-width="36" fill="none" stroke-linecap="round" />
    </mask>
  </defs>

  <path d="M 210 80 C 130 30, 40 80, 40 200 C 40 320, 150 380, 250 300 C 310 260, 340 160, 410 90 C 480 20, 580 100, 460 200"
        stroke="url(#logoGradient)" stroke-width="20" fill="none" stroke-linecap="round" mask="url(#cutout)" />

  <path d="M 160 200 C 250 200, 280 230, 320 270 C 370 320, 430 380, 510 330 C 580 280, 520 200, 460 200"
        stroke="url(#logoGradient)" stroke-width="20" fill="none" stroke-linecap="round" />

  <circle cx="210" cy="80" r="24" fill="url(#logoGradient)" />
  <circle cx="160" cy="200" r="24" fill="url(#logoGradient)" />
  <circle cx="460" cy="200" r="24" fill="url(#logoGradient)" />
</svg>
